<svg id="Capa_1" enable-background="new 0 0 512 512" height="512" viewBox="0 0 512 512" width="512" xmlns="http://www.w3.org/2000/svg"><g><path d="m256 168.9c-62.555 0-113.447 50.893-113.447 113.447s50.892 113.447 113.447 113.447 113.447-50.892 113.447-113.446-50.892-113.448-113.447-113.448zm0 186.894c-40.499 0-73.447-32.948-73.447-73.446 0-40.499 32.948-73.447 73.447-73.447s73.447 32.948 73.447 73.447c0 40.498-32.948 73.446-73.447 73.446z"/><path d="m393.766 161.326c-11.046 0-20 8.954-20 20s8.954 20 20 20h11.489c11.046 0 20-8.954 20-20s-8.954-20-20-20z"/><path d="m492 324.213c11.046 0 20-8.954 20-20v-144.512c0-44.112-35.888-80-80-80h-46.62l-22.972-40.822c-3.543-6.296-10.206-10.191-17.43-10.191h-177.957c-7.224 0-13.887 3.896-17.43 10.191l-22.971 40.822h-46.62c-44.112 0-80 35.888-80 80v243.611c0 44.112 35.888 80 80 80h352c44.112 0 80-35.888 80-80.1 0-11.046-8.954-19.95-20-19.95s-20 9.004-20 20.05c0 22.056-17.944 40-40 40h-352c-22.056 0-40-17.944-40-40v-243.611c0-22.056 17.944-40 40-40h58.314c7.224 0 13.887-3.896 17.43-10.191l22.972-40.822h154.568l22.972 40.822c3.543 6.296 10.206 10.191 17.43 10.191h58.314c22.056 0 40 17.944 40 40v144.512c0 11.046 8.954 20 20 20z"/></g></svg>