<?xml version="1.0"?>
<svg xmlns="http://www.w3.org/2000/svg" id="icon" viewBox="0 0 400 400" width="512" height="512"><path d="M243.237,126.194H217.758V100.716a6,6,0,0,0-6-6H185.637a6,6,0,0,0-6,6v25.478H154.16a6,6,0,0,0-6,6v26.122a6,6,0,0,0,6,6h25.477v25.477a6,6,0,0,0,6,6h26.121a6,6,0,0,0,6-6V164.316h25.479a6,6,0,0,0,6-6V132.194A6,6,0,0,0,243.237,126.194Zm-6,26.122H211.758a6,6,0,0,0-6,6v25.477H191.637V158.316a6,6,0,0,0-6-6H160.16V138.194h25.477a6,6,0,0,0,6-6V106.716h14.121v25.478a6,6,0,0,0,6,6h25.479Z"/><path d="M380.706,115.936H292.851V79.506A17.211,17.211,0,0,0,306.873,62.62V53.313a17.211,17.211,0,0,0-17.191-17.192H110.318A17.212,17.212,0,0,0,93.126,53.313V62.62a17.212,17.212,0,0,0,14.023,16.886v36.43H19.293A19.317,19.317,0,0,0,0,135.23v2.056A19.308,19.308,0,0,0,16.407,156.34V357.879a6,6,0,0,0,6,6H375.17a6,6,0,0,0,6-6V156.556A19.3,19.3,0,0,0,400,137.286V135.23A19.316,19.316,0,0,0,380.706,115.936ZM369.17,315.48H292.851V303.14h48.237a6,6,0,0,0,6-6V270.022a6,6,0,0,0-6-6H292.851V256.9h48.237a6,6,0,0,0,6-6V223.781a6,6,0,0,0-6-6H292.851V210.66h48.237a6,6,0,0,0,6-6V177.541a6,6,0,0,0-6-6H292.851V156.58H369.17Zm-115.849,0V233.862a6,6,0,0,0-6-6H152.679a6,6,0,0,0-6,6V315.48h-27.53V79.811h161.7V315.48Zm-94.642,0V239.862H194V315.48ZM206,239.862h35.321V315.48H206ZM28.407,156.58h76.318v14.961H56.489a6,6,0,0,0-6,6V204.66a6,6,0,0,0,6,6h48.236v7.121H56.489a6,6,0,0,0-6,6V250.9a6,6,0,0,0,6,6h48.236v7.122H56.489a6,6,0,0,0-6,6V297.14a6,6,0,0,0,6,6h48.236v12.34H28.407Zm76.318,134.56H62.489V276.022h42.236Zm0-46.24H62.489V229.781h42.236Zm0-46.24H62.489V183.541h42.236Zm188.126-15.119h42.237V198.66H292.851Zm0,46.24h42.237V244.9H292.851Zm0,46.241h42.237V291.14H292.851ZM105.126,62.62V53.313a5.2,5.2,0,0,1,5.192-5.192H289.682a5.2,5.2,0,0,1,5.191,5.192V62.62a5.2,5.2,0,0,1-5.191,5.191H110.318A5.2,5.2,0,0,1,105.126,62.62ZM12,137.286V135.23a7.3,7.3,0,0,1,7.293-7.294h87.856V144.58H19.293A7.3,7.3,0,0,1,12,137.286ZM369.17,351.879H28.407v-24.4H369.17ZM388,137.286a7.3,7.3,0,0,1-7.294,7.294H292.851V127.936h87.855A7.3,7.3,0,0,1,388,135.23Z"/></svg>
