<svg fill="none" height="512" viewBox="0 0 24 24" width="512" xmlns="http://www.w3.org/2000/svg"><g clip-rule="evenodd" fill="rgb(0,0,0)" fill-rule="evenodd"><path d="m15.5 8.5c0 1.933-1.567 3.5-3.5 3.5s-3.5-1.567-3.5-3.5 1.567-3.5 3.5-3.5 3.5 1.567 3.5 3.5zm-1 0c0 1.38071-1.1193 2.5-2.5 2.5s-2.5-1.11929-2.5-2.5 1.1193-2.5 2.5-2.5 2.5 1.11929 2.5 2.5z"/><path d="m19 8.85714c0 3.09426-4.6731 9.90616-6.3829 12.29486-.3828.5349-.6171.848-.6171.848s-.2343-.3131-.6171-.848c-1.7098-2.3887-6.3829-9.2006-6.3829-12.29486 0-3.78709 3.13401-6.85714 7-6.85714 3.866 0 7 3.07005 7 6.85714zm-1 0c0 .70952-.3494 1.83086-1.0003 3.22926-.6323 1.3581-1.4841 2.8445-2.3487 4.234-.8626 1.3861-1.7267 2.6581-2.3761 3.5846-.0967.138-.1886.2682-.2749.3898-.0863-.1216-.1782-.2518-.2749-.3898-.6494-.9265-1.5135-2.1985-2.37606-3.5846-.86465-1.3895-1.71643-2.8759-2.34871-4.234-.65097-1.3984-1.00033-2.51974-1.00033-3.22926 0-3.21547 2.66675-5.85714 6-5.85714 3.3332 0 6 2.64167 6 5.85714z"/></g></svg>